<?xml version="1.0" encoding="UTF-8" standalone="no" ?>
<!DOCTYPE svg PUBLIC "-//W3C//DTD SVG 1.1//EN" "http://www.w3.org/Graphics/SVG/1.1/DTD/svg11.dtd">
<svg xmlns="http://www.w3.org/2000/svg" xmlns:xlink="http://www.w3.org/1999/xlink" version="1.1" width="225.24609375" height="116.9381" xml:space="preserve">
<desc>Created with Fabric.js 1.6.0-rc.1</desc>
<defs></defs>
  <g transform="translate(152.12 46.72)">
   <text font-family="ADAMCG PRO" font-size="40" font-weight="normal" style="stroke: none; stroke-width: 1; stroke-dasharray: none; stroke-linecap: butt; stroke-linejoin: miter; stroke-miterlimit: 10; fill: #353b85; fill-rule: nonzero; opacity: 1;" ><tspan x="-63.62" y="8.98" style="stroke: none; stroke-width: 0; stroke-dasharray: none; stroke-linecap: butt; stroke-linejoin: miter; stroke-miterlimit: 4; fill: #353b85; fill-rule: ; opacity: 1;">B</tspan><tspan x="-40.11" y="8.98" style="stroke: none; stroke-width: 0; stroke-dasharray: none; stroke-linecap: butt; stroke-linejoin: miter; stroke-miterlimit: 4; fill: #353b85; fill-rule: ; opacity: 1;">H</tspan><tspan x="-12.8" y="8.98" style="stroke: none; stroke-width: 0; stroke-dasharray: none; stroke-linecap: butt; stroke-linejoin: miter; stroke-miterlimit: 4; fill: #353b85; fill-rule: ; opacity: 1;">Y</tspan><tspan x="14.72" y="8.98" style="stroke: none; stroke-width: 0; stroke-dasharray: none; stroke-linecap: butt; stroke-linejoin: miter; stroke-miterlimit: 4; fill: #353b85; fill-rule: ; opacity: 1;">A</tspan><tspan x="42.51" y="8.98" style="stroke: none; stroke-width: 0; stroke-dasharray: none; stroke-linecap: butt; stroke-linejoin: miter; stroke-miterlimit: 4; fill: #353b85; fill-rule: ; opacity: 1;">S</tspan></text>
 </g>
<g style="stroke: none; stroke-width: 1; stroke-dasharray: none; stroke-linecap: butt; stroke-linejoin: miter; stroke-miterlimit: 10; fill: none; fill-rule: nonzero; opacity: 1;" transform="translate(10 10) scale(1.61 1.61)" >
  <path d="m 123.707 105.472 c -14.605 0 -26.444 -11.839 -26.444 -26.443 c 0 -14.604 11.839 -26.443 26.444 -26.443 c 3.951 0 7.695 0.872 11.062 2.425 c -4.366 -2.54 -9.438 -4 -14.854 -4 c -16.352 0 -29.607 13.255 -29.607 29.606 c 0 16.351 13.256 29.607 29.607 29.607 c 13.82 0 25.427 -9.47 28.689 -22.274 c -3.662 10.214 -13.424 17.522 -24.897 17.522 z" style="stroke: none; stroke-width: 1; stroke-dasharray: none; stroke-linecap: butt; stroke-linejoin: miter; stroke-miterlimit: 10; fill: #d67087; fill-rule: nonzero; opacity: 1;" transform=" matrix(0.999999972746846 0 0 0.999999972746846 -90.30799753882218 -51.01099860978937) " stroke-linecap="round" />
  <polygon points="120.36,70.98 100.86,99.98 120.36,56.68 145.49,109.91 " style="stroke: none; stroke-width: 1; stroke-dasharray: none; stroke-linecap: butt; stroke-linejoin: miter; stroke-miterlimit: 10; fill: #353b86; fill-rule: nonzero; opacity: 1;" transform="  matrix(0.999999972746846 0 0 0.999999972746846 -90.30799753882218 -51.01099860978937) "/>
  <path d="m 163.694 83.296 c 0 0 -58.069 -7.885 -60.669 0 c -2.6 7.885 60.669 0 60.669 0 z" style="stroke: none; stroke-width: 1; stroke-dasharray: none; stroke-linecap: butt; stroke-linejoin: miter; stroke-miterlimit: 10; fill: #f44230; fill-rule: nonzero; opacity: 1;" transform=" matrix(0.999999972746846 0 0 0.999999972746846 -90.30799753882218 -51.01099860978937) " stroke-linecap="round" />
</g>
</svg>